<?xml version="1.0" encoding="utf-8"?>
<!-- Generator: Adobe Illustrator 27.0.1, SVG Export Plug-In . SVG Version: 6.00 Build 0)  -->
<svg version="1.1" id="Layer_1" xmlns="http://www.w3.org/2000/svg" xmlns:xlink="http://www.w3.org/1999/xlink" x="0px" y="0px"
	 viewBox="0 0 48 48" style="enable-background:new 0 0 48 48;" xml:space="preserve">
<style type="text/css">
	.st0{fill:#DDDDDD;}
</style>
<path class="st0" d="M11.2,0h25.5C43,0,48,5,48,11.2v25.5C48,43,43,48,36.8,48H11.2C5,48,0,43,0,36.8V11.2C0,5,5,0,11.2,0z"/>
<g>
	<path d="M38,9.4c-3.6-3.3-8-4.9-13.3-4.9c-5.6,0-10.3,1.9-14.2,5.6C6.6,13.8,4.7,18.5,4.7,24c0,5.3,1.9,9.9,5.6,13.7
		c3.7,3.8,8.7,5.7,15,5.7c3.8,0,7.5-0.8,11.2-2.3c1.2-0.5,1.8-1.9,1.3-3.1c-0.5-1.2-1.9-1.8-3.1-1.3c-3.2,1.4-6.3,2.1-9.3,2.1
		c-4.8,0-8.6-1.5-11.2-4.4c-2.6-2.9-4-6.4-4-10.4c0-4.3,1.4-7.9,4.3-10.8c2.8-2.9,6.3-4.3,10.5-4.3c3.8,0,7,1.2,9.7,3.6
		c2.6,2.4,3.9,5.4,3.9,8.9c0,2.5-0.6,4.5-1.8,6.1c-1.2,1.6-2.4,2.4-3.7,2.4c-0.7,0-1-0.4-1-1.1c0-0.6,0-1.3,0.1-2.2l1.5-12.1h-5.1
		L28,15.8c-1.3-1.1-2.7-1.6-4.3-1.6c-2.4,0-4.5,1-6.3,2.9c-1.7,1.9-2.6,4.5-2.6,7.5c0,3,0.8,5.4,2.3,7.3c1.6,1.8,3.4,2.8,5.6,2.8
		c1.9,0,3.6-0.8,5-2.4c1,1.6,2.6,2.3,4.6,2.3c3,0,5.6-1.3,7.7-3.9c2.2-2.6,3.3-5.7,3.3-9.4C43.3,16.7,41.5,12.7,38,9.4L38,9.4z
		 M26.3,27.7c-0.9,1.2-2,1.8-3.2,1.8c-0.9,0-1.5-0.4-2.1-1.3c-0.5-0.9-0.8-2-0.8-3.3c0-1.6,0.4-3,1.1-4c0.7-1,1.6-1.5,2.7-1.5
		c0.9,0,1.8,0.4,2.5,1.1c0.7,0.8,1.1,1.8,1.1,3C27.6,25.1,27.2,26.5,26.3,27.7L26.3,27.7z M26.3,27.7"/>
</g>
</svg>
