<svg width="50" height="50" viewBox="0 0 50 50" fill="none" xmlns="http://www.w3.org/2000/svg">
<circle cx="25" cy="25" r="25" fill="#020804"/>
<mask id="path-2-inside-1_908_45" fill="white">
<rect x="10" y="12" width="30" height="24" rx="1"/>
</mask>
<rect x="10" y="12" width="30" height="24" rx="1" stroke="#EBEBEB" stroke-width="4" mask="url(#path-2-inside-1_908_45)"/>
<path d="M10.9746 12.9595C11.4396 13.4173 19.369 20.2651 24.3046 25.097C24.6938 25.4781 25.316 25.4799 25.7104 25.1042C30.9316 20.1312 33.536 18.2438 39 12.9845" stroke="#EBEBEB" stroke-width="2"/>
<path d="M29 25C29 27.2091 27.2091 29 25 29C22.7909 29 21 27.2091 21 25C21 22.7909 22.7909 21 25 21C27.2091 21 29 22.7909 29 25Z" fill="#020804" stroke="#EBEBEB" stroke-width="2"/>
</svg>