<?xml version="1.0" encoding="UTF-8"?><svg id="Layer_2" xmlns="http://www.w3.org/2000/svg" viewBox="0 0 48 48"><defs><style>.cls-1{fill:#fff;}.cls-2{fill:#e14e1d;}.cls-3{fill:#ebebeb;}</style></defs><g id="HTML"><g><rect class="cls-2" width="48" height="48" rx="11.25" ry="11.25"/><path class="cls-1" d="M9,7.12l1.61,18.11H31.37l-.7,7.77-6.68,1.81-6.67-1.8-.45-4.99h-6.01l.86,9.62,12.27,3.41,12.28-3.41,1.65-18.39H16.09l-.55-6.13h22.92l.54-5.99H9Z"/><path class="cls-3" d="M24,7.12H9l1.61,18.11h13.39v-5.99h-7.91l-.55-6.13h8.46V7.12Z"/><path class="cls-3" d="M24,34.81h0s-6.67-1.8-6.67-1.8l-.45-4.99h-6.01l.86,9.62,12.27,3.41h0v-6.23Z"/></g></g></svg>