<?xml version="1.0" encoding="utf-8"?>
<!-- Generator: Adobe Illustrator 27.0.1, SVG Export Plug-In . SVG Version: 6.00 Build 0)  -->
<svg version="1.1" id="Layer_1" xmlns="http://www.w3.org/2000/svg" xmlns:xlink="http://www.w3.org/1999/xlink" x="0px" y="0px"
	 viewBox="0 0 48 48" style="enable-background:new 0 0 48 48;" xml:space="preserve">
<style type="text/css">
	.st0{fill:#DDDDDD;}
	.st1{fill-rule:evenodd;clip-rule:evenodd;fill:#0F0F0F;}
	.st2{fill:#0F0F0F;}
</style>
<path class="st0" d="M11.3,0h25.5C43,0,48,5,48,11.3v25.5C48,43,43,48,36.8,48H11.3C5,48,0,43,0,36.8V11.3C0,5,5,0,11.3,0z"/>
<path class="st1" d="M24,35.4c6.3,0,11.4-5.1,11.4-11.4c0-6.3-5.1-11.4-11.4-11.4c-6.3,0-11.4,5.1-11.4,11.4
	C12.6,30.3,17.7,35.4,24,35.4z M24,31.6c4.2,0,7.6-3.4,7.6-7.6c0-4.2-3.4-7.6-7.6-7.6c-4.2,0-7.6,3.4-7.6,7.6
	C16.4,28.2,19.8,31.6,24,31.6z"/>
<path class="st2" d="M35.4,10.7c-1.1,0-1.9,0.9-1.9,1.9s0.9,1.9,1.9,1.9s1.9-0.9,1.9-1.9S36.5,10.7,35.4,10.7z"/>
<path class="st1" d="M4.3,9.3c-1.2,2.4-1.2,5.6-1.2,12v5.3c0,6.4,0,9.6,1.2,12c1.1,2.1,2.8,3.9,5,5c2.4,1.2,5.6,1.2,12,1.2h5.3
	c6.4,0,9.6,0,12-1.2c2.1-1.1,3.9-2.8,5-5c1.2-2.4,1.2-5.6,1.2-12v-5.3c0-6.4,0-9.6-1.2-12c-1.1-2.1-2.8-3.9-5-5
	c-2.4-1.2-5.6-1.2-12-1.2h-5.3c-6.4,0-9.6,0-12,1.2C7.2,5.4,5.4,7.2,4.3,9.3z M26.7,6.9h-5.3c-3.3,0-5.5,0-7.2,0.1
	c-1.7,0.1-2.5,0.4-3.1,0.7C9.6,8.4,8.4,9.6,7.7,11c-0.3,0.6-0.6,1.4-0.7,3.1c-0.1,1.7-0.1,3.9-0.1,7.2v5.3c0,3.3,0,5.5,0.1,7.2
	c0.1,1.7,0.4,2.5,0.7,3.1c0.7,1.4,1.9,2.6,3.3,3.3c0.6,0.3,1.4,0.6,3.1,0.7c1.7,0.1,3.9,0.1,7.2,0.1h5.3c3.3,0,5.5,0,7.2-0.1
	c1.7-0.1,2.5-0.4,3.1-0.7c1.4-0.7,2.6-1.9,3.3-3.3c0.3-0.6,0.6-1.4,0.7-3.1c0.1-1.7,0.1-3.9,0.1-7.2v-5.3c0-3.3,0-5.5-0.1-7.2
	c-0.1-1.7-0.4-2.5-0.7-3.1c-0.7-1.4-1.9-2.6-3.3-3.3c-0.6-0.3-1.4-0.6-3.1-0.7C32.1,6.9,29.9,6.9,26.7,6.9z"/>
</svg>
