<?xml version="1.0" encoding="UTF-8"?><svg id="Layer_2" xmlns="http://www.w3.org/2000/svg" viewBox="0 0 48 48"><defs><style>.cls-1{fill:#f0db4f;}.cls-2{fill:#323330;}</style></defs><g id="JavaScript"><g><rect class="cls-1" width="48" height="48" rx="11.25" ry="11.25"/><path class="cls-2" d="M12.62,40.11l3.67-2.22c.71,1.26,1.35,2.32,2.9,2.32s2.42-.58,2.42-2.84v-15.34h4.51v15.4c0,4.67-2.74,6.8-6.73,6.8-3.61,0-5.7-1.87-6.77-4.12"/><path class="cls-2" d="M28.57,39.63l3.67-2.13c.97,1.58,2.22,2.74,4.45,2.74,1.87,0,3.06-.93,3.06-2.22,0-1.55-1.22-2.09-3.29-3l-1.13-.48c-3.25-1.39-5.41-3.13-5.41-6.8,0-3.38,2.58-5.96,6.61-5.96,2.87,0,4.93,1,6.41,3.61l-3.51,2.26c-.77-1.39-1.61-1.93-2.9-1.93s-2.16,.84-2.16,1.93c0,1.35,.84,1.9,2.77,2.74l1.13,.48c3.83,1.64,5.99,3.32,5.99,7.09,0,4.06-3.19,6.28-7.48,6.28s-6.9-2-8.22-4.61"/></g></g></svg>