<?xml version="1.0" encoding="utf-8"?>
<!-- Generator: Adobe Illustrator 27.0.1, SVG Export Plug-In . SVG Version: 6.00 Build 0)  -->
<svg version="1.1" id="Layer_1" xmlns="http://www.w3.org/2000/svg" xmlns:xlink="http://www.w3.org/1999/xlink" x="0px" y="0px"
	 viewBox="0 0 48 48" style="enable-background:new 0 0 48 48;" xml:space="preserve">
<style type="text/css">
	.st0{fill:#DDDDDD;}
	.st1{fill-rule:evenodd;clip-rule:evenodd;fill:#007EBB;}
	.st2{fill-rule:evenodd;clip-rule:evenodd;fill:#FFFFFF;}
</style>
<path class="st0" d="M11.2,0h25.5C43,0,48,5,48,11.2v25.5C48,43,43,48,36.8,48H11.2C5,48,0,43,0,36.8V11.2C0,5,5,0,11.2,0z"/>
<g>
	<path class="st1" d="M9.7,42.4h28.6c2.3,0,4.1-1.8,4.1-4.1V9.7c0-2.3-1.8-4.1-4.1-4.1H9.7c-2.3,0-4.1,1.8-4.1,4.1v28.6
		C5.6,40.6,7.4,42.4,9.7,42.4z"/>
	<path class="st2" d="M37.3,37.3h-5.5V28c0-2.6-1-4-3-4c-2.2,0-3.3,1.5-3.3,4v9.3h-5.3V19.6h5.3V22c0,0,1.6-2.9,5.3-2.9
		c3.8,0,6.5,2.3,6.5,7V37.3z M13.9,17.2c-1.8,0-3.2-1.5-3.2-3.3s1.5-3.3,3.2-3.3s3.2,1.5,3.2,3.3S15.7,17.2,13.9,17.2z M11.2,37.3
		h5.5V19.6h-5.5V37.3z"/>
</g>
</svg>
