<svg width="50" height="50" viewBox="0 0 50 50" fill="none" xmlns="http://www.w3.org/2000/svg">
<path d="M23.4382 0H26.5632C26.6862 0.0349561 26.8115 0.0615946 26.9381 0.0797358C30.6943 0.36219 34.2212 1.41227 37.4582 3.33674C44.1074 7.2911 48.1846 13.0753 49.617 20.6935C49.7869 21.6003 49.8746 22.5233 50 23.4396V26.5642C49.8759 27.4643 49.7788 28.3684 49.6251 29.2671C48.6534 34.8834 45.7958 39.9984 41.5257 43.7645C37.2556 47.5305 31.8294 49.7214 26.1464 49.9741C20.0367 50.2363 14.5083 48.5091 9.68116 44.7345C4.61714 40.7747 1.51507 35.6176 0.374946 29.2631C0.214447 28.3697 0.124083 27.4643 0 26.5601V23.4396C0.0728313 22.845 0.134875 22.249 0.217147 21.6557C0.936018 16.554 2.99148 12.0604 6.45635 8.24928C10.3151 4.00706 15.0774 1.35686 20.7421 0.377056C21.6349 0.22299 22.5386 0.124334 23.4382 0ZM37.9707 37.361C37.9828 37.2069 37.999 37.0907 37.999 36.9839C37.999 33.1444 38.0085 29.3036 37.9869 25.4628C37.9869 24.8596 37.902 24.2595 37.7347 23.6802C37.0104 21.2665 35.2854 19.9313 32.8793 19.4974C30.4232 19.0528 28.3583 19.8285 26.756 21.7679C26.6468 21.903 26.5443 22.0382 26.3514 22.2841V19.9326H21.1858V37.3475H26.6104V36.7379C26.6104 34.035 26.6104 31.3321 26.6104 28.6292C26.5998 28.1251 26.6155 27.6208 26.6576 27.1183C26.7421 26.2317 27.1672 25.4127 27.8431 24.8343C29.5061 23.3734 31.8138 24.0667 32.3492 26.202C32.4719 26.7401 32.5307 27.2908 32.5245 27.8427C32.5407 30.8159 32.5245 33.7985 32.5245 36.7771V37.3569L37.9707 37.361ZM17.8747 37.3502V19.938H12.3705V37.3502H17.8747ZM11.9969 14.4741C11.9958 14.8858 12.0764 15.2937 12.2339 15.6739C12.3914 16.0542 12.6228 16.3994 12.9145 16.6893C13.2063 16.9792 13.5526 17.2082 13.9334 17.3629C14.3142 17.5177 14.7218 17.595 15.1327 17.5905C15.5435 17.5907 15.9504 17.5097 16.3299 17.352C16.7094 17.1943 17.0541 16.9632 17.3443 16.6718C17.6344 16.3804 17.8644 16.0345 18.0209 15.6539C18.1774 15.2733 18.2574 14.8655 18.2564 14.4538C18.251 13.6223 17.9173 12.8268 17.3281 12.2413C16.7389 11.6557 15.9423 11.3278 15.1125 11.3292C14.702 11.3305 14.2958 11.4129 13.9172 11.5717C13.5386 11.7305 13.1949 11.9627 12.906 12.2548C12.6171 12.547 12.3885 12.8934 12.2334 13.2742C12.0784 13.655 11.9998 14.0628 12.0023 14.4741H11.9969Z" fill="black"/>
</svg>
