<?xml version="1.0" encoding="UTF-8"?><svg id="Layer_2" xmlns="http://www.w3.org/2000/svg" viewBox="0 0 48 48"><defs><style>.cls-1{fill:#fff;}.cls-2{fill:#242938;}</style></defs><g id="Next_JS"><g><rect class="cls-2" width="48" height="48" rx="11.25" ry="11.25"/><path class="cls-1" d="M22.77,5.26c-.08,0-.34,.03-.57,.05-5.33,.48-10.32,3.35-13.48,7.77-1.76,2.46-2.88,5.24-3.31,8.19-.15,1.03-.17,1.33-.17,2.73s.02,1.7,.17,2.73c1.02,7.04,6.03,12.96,12.83,15.15,1.22,.39,2.5,.66,3.96,.82,.57,.06,3.02,.06,3.59,0,2.52-.28,4.65-.9,6.76-1.98,.32-.16,.38-.21,.34-.25-.03-.02-1.4-1.87-3.05-4.09l-3-4.05-3.76-5.56c-2.07-3.06-3.77-5.56-3.78-5.56-.01,0-.03,2.47-.04,5.48-.01,5.28-.01,5.49-.08,5.62-.1,.18-.17,.25-.32,.33-.12,.06-.22,.07-.77,.07h-.63l-.17-.11c-.11-.07-.19-.16-.25-.27l-.08-.17v-7.35s.02-7.35,.02-7.35l.11-.14c.06-.08,.18-.18,.27-.22,.15-.07,.21-.08,.84-.08,.75,0,.87,.03,1.07,.24,.05,.06,2.09,3.12,4.52,6.81,2.43,3.69,5.76,8.73,7.4,11.21l2.97,4.5,.15-.1c1.33-.87,2.74-2.1,3.85-3.38,2.37-2.72,3.9-6.04,4.41-9.59,.15-1.03,.17-1.33,.17-2.73s-.02-1.7-.17-2.73c-1.02-7.04-6.03-12.96-12.83-15.15-1.2-.39-2.47-.66-3.9-.82-.35-.04-2.78-.08-3.08-.05Zm7.68,11.34c.18,.09,.32,.26,.37,.43,.03,.1,.04,2.13,.03,6.73v6.59s-1.17-1.78-1.17-1.78l-1.17-1.78v-4.79c0-3.1,.01-4.84,.04-4.92,.06-.21,.19-.37,.36-.46,.15-.08,.21-.08,.78-.08,.54,0,.64,0,.76,.07Z"/></g></g></svg>