<?xml version="1.0" encoding="UTF-8"?><svg id="Layer_2" xmlns="http://www.w3.org/2000/svg" viewBox="0 0 48 48"><defs><style>.cls-1{fill:#00d8ff;}.cls-2{fill:none;stroke:#00d8ff;stroke-miterlimit:10;stroke-width:1.67px;}.cls-3{fill:#242938;}</style></defs><g id="React_JS"><g><rect class="cls-3" width="48" height="48" rx="11.25" ry="11.25"/><path class="cls-1" d="M24,27.55c1.93,0,3.5-1.57,3.5-3.5s-1.57-3.5-3.5-3.5-3.5,1.57-3.5,3.5,1.57,3.5,3.5,3.5Z"/><path class="cls-2" d="M24,16.94c4.7,0,9.06,.67,12.35,1.81,3.96,1.36,6.4,3.43,6.4,5.31s-2.58,4.15-6.84,5.56c-3.22,1.07-7.45,1.62-11.91,1.62s-8.9-.52-12.15-1.63c-4.12-1.41-6.6-3.63-6.6-5.55s2.33-3.91,6.23-5.27c3.3-1.15,7.77-1.84,12.51-1.84h0Z"/><path class="cls-2" d="M17.81,20.52c2.35-4.07,5.11-7.51,7.73-9.8,3.16-2.75,6.17-3.83,7.79-2.89,1.69,.98,2.3,4.31,1.4,8.7-.68,3.32-2.32,7.27-4.54,11.13-2.28,3.96-4.9,7.45-7.49,9.71-3.28,2.86-6.44,3.9-8.1,2.94-1.61-.93-2.22-3.97-1.45-8.03,.65-3.44,2.29-7.65,4.66-11.76h0Z"/><path class="cls-2" d="M17.81,27.67c-2.35-4.06-3.95-8.18-4.62-11.59-.8-4.11-.24-7.26,1.39-8.2,1.69-.98,4.88,.16,8.24,3.13,2.53,2.25,5.14,5.64,7.37,9.49,2.29,3.96,4.01,7.96,4.67,11.34,.84,4.27,.16,7.53-1.5,8.49-1.61,.93-4.55-.05-7.69-2.75-2.65-2.28-5.49-5.8-7.86-9.91Z"/></g></g></svg>