<?xml version="1.0" encoding="UTF-8"?><svg id="Layer_2" xmlns="http://www.w3.org/2000/svg" xmlns:xlink="http://www.w3.org/1999/xlink" viewBox="0 0 48 48"><defs><style>.cls-1{fill:#cd6799;}.cls-2{fill:#fff;}.cls-3{clip-path:url(#clippath);}.cls-4{fill:none;}</style><clipPath id="clippath"><rect class="cls-4" x="5.25" y="9.94" width="37.5" height="28.11"/></clipPath></defs><g id="Sass"><g><rect class="cls-1" width="48" height="48" rx="11.25" ry="11.25"/><g class="cls-3"><path class="cls-2" d="M37.52,26.09c-1.31,0-2.44,.32-3.4,.79-.35-.69-.7-1.31-.76-1.76-.07-.53-.15-.85-.07-1.48s.45-1.53,.44-1.59c0-.07-.08-.39-.84-.4-.75,0-1.4,.14-1.48,.34-.08,.2-.22,.65-.31,1.12-.13,.68-1.51,3.13-2.29,4.41-.25-.5-.47-.94-.52-1.29-.07-.53-.15-.85-.07-1.48,.08-.63,.45-1.53,.44-1.6,0-.07-.08-.39-.84-.4-.75,0-1.4,.14-1.48,.34-.08,.2-.16,.66-.31,1.12-.16,.45-1.99,4.53-2.46,5.59-.25,.54-.46,.97-.61,1.27,0,0,0,.02-.03,.05-.13,.25-.21,.39-.21,.39h0c-.1,.19-.21,.36-.27,.36-.04,0-.12-.49,.01-1.16,.27-1.42,.92-3.62,.92-3.7,0-.04,.12-.42-.42-.62-.53-.2-.73,.13-.77,.13s-.08,.12-.08,.12c0,0,.6-2.48-1.14-2.48-1.08,0-2.57,1.18-3.31,2.25-.47,.25-1.46,.79-2.52,1.38-.4,.23-.82,.45-1.21,.66-.03-.03-.05-.06-.08-.09-2.09-2.24-5.97-3.82-5.81-6.82,.06-1.1,.44-3.97,7.44-7.46,5.76-2.84,10.35-2.05,11.14-.31,1.14,2.49-2.46,7.12-8.41,7.79-2.27,.25-3.46-.62-3.77-.95-.31-.34-.36-.36-.48-.29-.19,.1-.07,.41,0,.59,.18,.47,.91,1.29,2.15,1.69,1.1,.36,3.76,.55,6.98-.69,3.61-1.4,6.43-5.28,5.6-8.53-.83-3.3-6.3-4.39-11.49-2.55-3.08,1.1-6.42,2.82-8.82,5.07-2.85,2.67-3.31,4.99-3.12,5.96,.66,3.45,5.42,5.7,7.32,7.36-.1,.05-.18,.1-.26,.14-.95,.47-4.58,2.37-5.48,4.37-1.03,2.27,.16,3.9,.95,4.12,2.44,.68,4.96-.54,6.3-2.55,1.35-2.01,1.18-4.63,.56-5.83,0-.01-.01-.03-.03-.04,.25-.14,.5-.29,.75-.44,.49-.29,.97-.55,1.38-.77-.23,.64-.4,1.4-.49,2.49-.1,1.29,.42,2.96,1.12,3.61,.31,.29,.67,.29,.9,.29,.81,0,1.17-.67,1.57-1.46,.49-.97,.94-2.1,.94-2.1,0,0-.55,3.05,.95,3.05,.55,0,1.1-.71,1.35-1.07h0s.01-.01,.04-.06c.05-.09,.09-.14,.09-.14h0c.22-.4,.71-1.27,1.44-2.71,.94-1.86,1.86-4.19,1.86-4.19,0,0,.08,.57,.36,1.51,.16,.55,.51,1.16,.78,1.75-.22,.31-.36,.48-.36,.48h0c-.18,.24-.37,.49-.58,.74-.75,.89-1.64,1.91-1.76,2.2-.14,.35-.11,.6,.16,.81,.2,.15,.55,.17,.92,.15,.67-.05,1.14-.21,1.38-.31,.36-.13,.79-.33,1.18-.62,.73-.54,1.18-1.31,1.14-2.33-.02-.56-.21-1.12-.43-1.65,.07-.1,.13-.19,.2-.29,1.16-1.69,2.05-3.55,2.05-3.55,0,0,.08,.57,.36,1.51,.14,.48,.42,1,.66,1.51-1.09,.88-1.76,1.91-2,2.58-.43,1.25-.1,1.81,.54,1.94,.29,.06,.7-.08,1-.21,.38-.12,.84-.34,1.27-.65,.73-.54,1.44-1.29,1.4-2.31-.02-.47-.14-.92-.31-1.37,.92-.38,2.12-.6,3.64-.42,3.26,.38,3.9,2.42,3.78,3.27-.12,.86-.81,1.32-1.03,1.46-.23,.14-.3,.19-.28,.29,.03,.15,.14,.14,.33,.12,.27-.05,1.71-.69,1.77-2.27,.1-2.01-1.81-4.21-5.2-4.19Zm-25.14,8.47c-1.08,1.18-2.59,1.62-3.24,1.25-.7-.4-.42-2.14,.9-3.39,.81-.76,1.85-1.46,2.54-1.9,.16-.1,.39-.23,.67-.4,.05-.03,.08-.04,.08-.04,.05-.03,.11-.07,.16-.1,.49,1.78,.02,3.35-1.12,4.59Zm7.87-5.35c-.38,.92-1.16,3.27-1.64,3.14-.41-.11-.66-1.89-.08-3.65,.29-.88,.92-1.94,1.28-2.35,.59-.66,1.24-.88,1.4-.61,.2,.35-.72,2.9-.95,3.47Zm6.5,3.11c-.16,.08-.31,.14-.38,.1-.05-.03,.07-.14,.07-.14,0,0,.81-.88,1.14-1.27,.18-.23,.4-.51,.64-.81v.09c0,1.05-1.01,1.75-1.46,2.04Zm5.01-1.14c-.12-.08-.1-.36,.29-1.21,.15-.34,.51-.9,1.12-1.44,.07,.22,.12,.43,.11,.63,0,1.32-.95,1.81-1.52,2.02Z"/></g></g></g></svg>