<?xml version="1.0" encoding="UTF-8"?><svg id="Layer_2" xmlns="http://www.w3.org/2000/svg" xmlns:xlink="http://www.w3.org/1999/xlink" viewBox="0 0 48 48"><defs><style>.cls-1{fill:url(#linear-gradient);fill-rule:evenodd;}.cls-2{fill:#242938;}</style><linearGradient id="linear-gradient" x1="4141.56" y1="-2253.7" x2="4218.56" y2="-2365.2" gradientTransform="translate(-759.79 -409.06) scale(.19 -.19)" gradientUnits="userSpaceOnUse"><stop offset="0" stop-color="#32b1c1"/><stop offset="1" stop-color="#14c6b7"/></linearGradient></defs><g id="Tailwind"><g><rect class="cls-2" width="48" height="48" rx="11.25" ry="11.25"/><path class="cls-1" d="M15.56,20.62c1.12-4.5,3.94-6.75,8.44-6.75,6.75,0,7.59,5.06,10.97,5.91,2.25,.56,4.22-.28,5.91-2.53-1.12,4.5-3.94,6.75-8.44,6.75-6.75,0-7.59-5.06-10.97-5.91-2.25-.56-4.22,.28-5.91,2.53ZM7.12,30.75c1.12-4.5,3.94-6.75,8.44-6.75,6.75,0,7.59,5.06,10.97,5.91,2.25,.56,4.22-.28,5.91-2.53-1.12,4.5-3.94,6.75-8.44,6.75-6.75,0-7.59-5.06-10.97-5.91-2.25-.56-4.22,.28-5.91,2.53Z"/></g></g></svg>