<svg width="50" height="50" viewBox="0 0 50 50" fill="none" xmlns="http://www.w3.org/2000/svg">
<path fill-rule="evenodd" clip-rule="evenodd" d="M25 0C11.193 0 0 11.193 0 25C0 38.807 11.193 50 25 50C38.807 50 50 38.807 50 25C50 11.193 38.807 0 25 0ZM36.588 17C36.2115 20.955 34.584 30.55 33.7555 34.976C33.4055 36.849 32.715 37.476 32.047 37.539C30.597 37.6725 29.493 36.5795 28.0865 35.6575C25.8865 34.2155 24.6435 33.3175 22.5075 31.91C20.039 30.2835 21.6395 29.3895 23.046 27.9285C23.414 27.546 29.811 21.7285 29.9345 21.2C29.95 21.134 29.9645 20.888 29.818 20.758C29.6715 20.628 29.4565 20.6725 29.3005 20.708C29.0802 20.758 25.5652 23.0813 18.7555 27.678C17.7575 28.363 16.8538 28.6963 16.0445 28.678C15.1515 28.6585 13.4345 28.173 12.158 27.758C10.5925 27.249 9.348 26.98 9.458 26.116C9.51433 25.6653 10.1343 25.2048 11.318 24.7345C18.606 21.5605 23.4653 19.4677 25.896 18.456C32.8385 15.5685 34.2815 15.0665 35.2215 15.05C35.4285 15.0465 35.891 15.1 36.1905 15.341C36.443 15.546 36.513 15.8235 36.546 16.018C36.5967 16.3427 36.6108 16.6721 36.588 17Z" fill="#020804"/>
</svg>
