<?xml version="1.0" encoding="utf-8"?>
<!-- Generator: Adobe Illustrator 27.0.1, SVG Export Plug-In . SVG Version: 6.00 Build 0)  -->
<svg version="1.1" id="Layer_1" xmlns="http://www.w3.org/2000/svg" xmlns:xlink="http://www.w3.org/1999/xlink" x="0px" y="0px"
	 viewBox="0 0 48 48" style="enable-background:new 0 0 48 48;" xml:space="preserve">
<style type="text/css">
	.st0{fill:#DDDDDD;}
	.st1{fill-rule:evenodd;clip-rule:evenodd;fill:url(#SVGID_1_);}
	.st2{fill-rule:evenodd;clip-rule:evenodd;fill:#FFFFFF;}
</style>
<path class="st0" d="M11.2,0h25.5C43,0,48,5,48,11.2v25.5C48,43,43,48,36.8,48H11.2C5,48,0,43,0,36.8V11.2C0,5,5,0,11.2,0z"/>
<linearGradient id="SVGID_1_" gradientUnits="userSpaceOnUse" x1="-1772.252" y1="-95.1125" x2="-1772.252" y2="-95.0716" gradientTransform="matrix(1000 0 0 1000 1772276 95115.9531)">
	<stop  offset="0" style="stop-color:#2AABEE"/>
	<stop  offset="1" style="stop-color:#229ED9"/>
</linearGradient>
<circle class="st1" cx="24" cy="24" r="20.6"/>
<path class="st2" d="M12.8,23.8c6-2.6,10-4.3,12-5.2c5.7-2.4,6.9-2.8,7.7-2.8c0.2,0,0.5,0,0.8,0.2c0.2,0.2,0.3,0.4,0.3,0.6
	c0,0.2,0.1,0.5,0,0.8c-0.3,3.3-1.6,11.2-2.3,14.8c-0.3,1.5-0.9,2.1-1.4,2.1c-1.2,0.1-2.1-0.8-3.3-1.5c-1.8-1.2-2.8-1.9-4.6-3.1
	c-2-1.3-0.7-2.1,0.4-3.3c0.3-0.3,5.6-5.1,5.7-5.5c0-0.1,0-0.3-0.1-0.4c-0.1-0.1-0.3-0.1-0.4,0c-0.2,0-3.1,2-8.7,5.8
	c-0.8,0.6-1.6,0.8-2.2,0.8c-0.7,0-2.1-0.4-3.2-0.8c-1.3-0.4-2.3-0.6-2.2-1.4C11.3,24.6,11.8,24.2,12.8,23.8z"/>
</svg>
