<?xml version="1.0" encoding="UTF-8"?><svg id="Layer_2" xmlns="http://www.w3.org/2000/svg" viewBox="0 0 48 48"><defs><style>.cls-1{fill:#fff;}.cls-2{fill:#007acc;}</style></defs><g id="TypeScript"><g><rect class="cls-2" width="48" height="48" rx="11.25" ry="11.25"/><path class="cls-1" d="M10.61,24.16l-.02,1.97h6.25v17.75h4.42V26.12h6.25v-1.93c0-1.07-.02-1.96-.05-1.98-.02-.03-3.82-.05-8.43-.04l-8.39,.02-.02,1.96Z"/><path class="cls-1" d="M38.73,22.15c1.22,.3,2.15,.85,3,1.73,.44,.47,1.1,1.33,1.15,1.54,.02,.06-2.07,1.46-3.34,2.25-.05,.03-.23-.17-.43-.47-.62-.9-1.26-1.29-2.26-1.36-1.46-.1-2.39,.66-2.38,1.94,0,.37,.05,.59,.21,.9,.32,.66,.91,1.06,2.78,1.87,3.44,1.48,4.91,2.45,5.82,3.84,1.02,1.55,1.25,4.02,.56,5.85-.76,2-2.65,3.35-5.31,3.8-.82,.14-2.77,.12-3.66-.04-1.93-.34-3.76-1.3-4.88-2.54-.44-.49-1.3-1.76-1.25-1.85,.02-.03,.22-.15,.44-.28,.21-.12,1.02-.59,1.78-1.03l1.38-.8,.29,.43c.4,.62,1.29,1.46,1.82,1.74,1.53,.81,3.63,.69,4.67-.24,.44-.4,.62-.82,.62-1.44,0-.56-.07-.8-.36-1.22-.37-.53-1.14-.98-3.3-1.92-2.48-1.07-3.54-1.73-4.52-2.78-.56-.61-1.1-1.58-1.32-2.4-.18-.68-.23-2.38-.08-3.06,.51-2.39,2.32-4.06,4.92-4.56,.85-.16,2.81-.1,3.64,.11Z"/></g></g></svg>