<svg width="50" height="50" viewBox="0 0 50 50" fill="none" xmlns="http://www.w3.org/2000/svg">
<path fill-rule="evenodd" clip-rule="evenodd" d="M21.8481 17.6843L17.897 12.0299L15.9167 12.0213L13.9365 12.0127L13.9959 12.1034C14.0283 12.1534 14.841 13.3187 15.8018 14.6929C17.6242 17.2993 24.7839 27.5467 29.3884 34.1384C30.86 36.2448 32.082 37.9873 32.1037 38.0101C32.135 38.0425 32.5634 38.0493 34.1056 38.0429L36.0679 38.0343L30.9335 30.6866L21.8481 17.6843Z" fill="#040404"/>
<path fill-rule="evenodd" clip-rule="evenodd" d="M25 0C11.194 0 0 11.194 0 25C0 38.806 11.194 50 25 50C38.806 50 50 38.806 50 25C50 11.194 38.8071 0 25 0ZM35.2593 39.9254H30.9243L30.8396 39.803C30.7929 39.7354 29.0052 37.1321 26.8668 34.0175C24.7284 30.903 22.969 28.3548 22.956 28.3548C22.9429 28.3548 22.6519 28.6828 22.3093 29.0836C21.9668 29.4843 21.6709 29.8298 21.6522 29.8478C21.6336 29.8657 21.1616 30.416 20.603 31.0668C20.0444 31.7175 19.5343 32.3101 19.4701 32.3832C19.406 32.4563 19.2836 32.597 19.2007 32.6955C18.9828 32.9537 16.3914 35.969 16.0515 36.3597C15.8944 36.5407 15.1407 37.4172 14.3765 38.3078L12.9869 39.9269H11.7231C10.9078 39.9269 10.4597 39.9153 10.4597 39.8944C10.4597 39.8735 10.5601 39.7451 10.6836 39.6067C10.8071 39.4683 11.4914 38.6709 12.2052 37.8392C13.5425 36.2817 13.7963 35.9866 15.5534 33.944C16.1213 33.2836 16.9739 32.2925 17.4481 31.7425L19.0597 29.8687L20.5149 28.1757C20.9041 27.7239 21.3519 27.2056 21.5116 27.019C21.6713 26.8325 21.8007 26.6746 21.8007 26.6619C21.8007 26.6493 21.5146 26.2228 21.1664 25.7142C20.8183 25.2056 18.3362 21.5896 15.6545 17.684C12.9728 13.7784 10.6989 10.4683 10.6007 10.3284L10.422 10.0735H19.1224L22.8369 15.4851C24.8802 18.4619 26.575 20.9269 26.603 20.9627C26.6515 21.0239 26.6817 20.9955 27.2597 20.3243C28.5772 18.7966 28.8642 18.4623 29.1466 18.1284C29.3078 17.9373 29.4489 17.7739 29.4601 17.7649C29.4713 17.756 30.0198 17.1198 30.6772 16.3511C31.3347 15.5825 31.9784 14.8351 32.106 14.6892C32.2336 14.5433 32.4119 14.3369 32.5026 14.2298C32.5933 14.1228 32.8078 13.8724 32.9802 13.6728C33.3702 13.2213 34.744 11.6235 35.5037 10.7377L36.0743 10.0746H37.3582C38.5668 10.0746 38.6392 10.078 38.5966 10.131C38.572 10.1619 38.0996 10.7131 37.5474 11.3556L35.6123 13.6075C35.1 14.2045 34.6049 14.7813 34.509 14.8896C34.4131 14.9978 34.0071 15.4716 33.6034 15.9418C33.1996 16.4119 32.3881 17.3571 31.7989 18.0429C28.366 22.0396 27.8437 22.6507 27.8272 22.6881C27.8108 22.7254 28.3228 23.4761 32.1586 29.059C37.4866 36.8138 39.5634 39.8425 39.578 39.8799C39.5925 39.9172 38.8239 39.9254 35.2593 39.9254Z" fill="#040404"/>
</svg>