<?xml version="1.0" encoding="utf-8"?>
<!-- Generator: Adobe Illustrator 27.0.1, SVG Export Plug-In . SVG Version: 6.00 Build 0)  -->
<svg version="1.1" id="Layer_1" xmlns="http://www.w3.org/2000/svg" xmlns:xlink="http://www.w3.org/1999/xlink" x="0px" y="0px"
	 viewBox="0 0 48 48" style="enable-background:new 0 0 48 48;" xml:space="preserve">
<style type="text/css">
	.st0{fill:#DDDDDD;}
</style>
<path class="st0" d="M11.2,0h25.5C43,0,48,5,48,11.2v25.5C48,43,43,48,36.8,48H11.2C5,48,0,43,0,36.8V11.2C0,5,5,0,11.2,0z"/>
<path d="M21.7,2.1C13.9,2.9,7,8,3.8,15.2c-2,4.7-2.4,10-0.9,15c1.8,6.2,6.4,11.4,12.3,14c4.7,2,10,2.4,15,0.9
	c7.4-2.1,13.2-8.2,15.1-15.7c3-11.8-4.3-23.9-16.2-26.7C26.6,2,24.3,1.8,21.7,2.1z M22,15.7c1.9,2.5,3.5,4.6,3.5,4.6s2-2.1,4.3-4.6
	l4.2-4.6h2.4l-0.5,0.5c-0.3,0.3-2.2,2.4-4.3,4.6c-2,2.2-4,4.4-4.4,4.8l-0.7,0.7l5.5,7.3c3,4,5.5,7.4,5.5,7.5c0,0.1-1.8,0.1-4,0.1
	l-4,0l-3.7-5c-2.6-3.5-3.8-4.9-3.9-4.9c-0.1,0.1-2.2,2.3-4.6,5l-4.5,4.9h-1.1c-0.6,0-1.1,0-1.1-0.1c0,0,2.3-2.6,5.2-5.7
	c2.8-3.1,5.2-5.6,5.2-5.7c0-0.1-2.3-3.3-5.2-7.1c-2.9-3.8-5.2-7-5.2-7c0,0,1.8,0,4,0h4L22,15.7z"/>
<path d="M14.1,13.1c0.1,0.1,3.8,5.1,8.2,11L30.4,35l1.8,0c1.1,0,1.8-0.1,1.8-0.1c0-0.1-3.7-5-8.2-11l-8.2-10.9h-1.8
	C14.3,12.9,14,13,14.1,13.1L14.1,13.1z"/>
</svg>
